<?xml version="1.0" encoding="UTF-8"?>
<svg id="Layer_2" data-name="Layer 2" xmlns="http://www.w3.org/2000/svg" viewBox="0 0 542.25 230.68">
  <defs>
    <style>
      .cls-1 {
        fill: #2e3191;
        stroke-width: 0px;
      }

      .cls-2 {
        font-family: MyriadPro-Regular, 'Myriad Pro';
        font-size: 12px;
      }

      .cls-2, .cls-3 {
        fill: #2e3192;
      }

      .cls-4 {
        fill: none;
        stroke: #2e3191;
        stroke-miterlimit: 10;
        stroke-width: 5.67px;
      }

      .cls-3 {
        font-family: KhPenWappathor, 'Kh Pen Wappathor';
        font-size: 73.7px;
      }
    </style>
  </defs>
  <g id="Layer_1-2" data-name="Layer 1">
    <g>
      <circle class="cls-4" cx="115.34" cy="115.34" r="107.88"/>
      <circle class="cls-4" cx="115.34" cy="115.34" r="90.28"/>
      <circle class="cls-4" cx="115.34" cy="115.34" r="112.51"/>
      <text/>
      <path class="cls-1" d="M68.65,81.37l-3.71,2.78c-4.25,3.18-10.3.15-10.3-5.16v-19.7c0-3.57,2.9-6.45,6.46-6.44l47.96.16c3.55.01,6.42,2.89,6.42,6.44v22.06c0,1.91-.85,3.73-2.32,4.95l-39.61,32.98c-1.47,1.22-2.32,3.04-2.32,4.95v14.2c0,5.48,6.4,8.45,10.59,4.93l14.77-12.44c1.45-1.22,2.29-3.03,2.29-4.93v-6.32c0-1.96.89-3.82,2.43-5.04l3.71-2.95c4.22-3.36,10.45-.35,10.45,5.04v15.66c0,1.94-.88,3.78-2.39,5l-47.96,38.87c-4.21,3.41-10.5.42-10.5-5v-51.67c0-1.85.8-3.61,2.19-4.84l39.87-35.08c1.39-1.22,2.19-2.98,2.19-4.84v-3.07c0-3.56-2.88-6.44-6.44-6.44h-14.77c-3.56,0-6.44,2.88-6.44,6.44v4.31c0,2.03-.96,3.94-2.58,5.16Z"/>
      <path class="cls-1" d="M162.91,81.37l3.47,2.78c3.97,3.18,9.62.15,9.62-5.16v-19.7c0-3.57-2.7-6.45-6.03-6.44l-44.78.16c-3.31.01-5.99,2.89-5.99,6.44v22.06c0,1.91.79,3.73,2.17,4.95l36.98,32.98c1.37,1.22,2.17,3.04,2.17,4.95v14.2c0,5.48-5.98,8.45-9.89,4.93l-13.79-12.44c-1.36-1.22-2.14-3.03-2.14-4.93v-6.32c0-1.96-.84-3.82-2.27-5.04l-3.47-2.95c-3.94-3.36-9.76-.35-9.76,5.04v15.66c0,1.94.82,3.78,2.23,5l44.78,38.87c3.93,3.41,9.8.42,9.8-5v-51.67c0-1.85-.74-3.61-2.04-4.84l-37.23-35.08c-1.3-1.22-2.04-2.98-2.04-4.84v-3.07c0-3.56,2.69-6.44,6.01-6.44h13.79c3.32,0,6.01,2.88,6.01,6.44v4.31c0,2.03.89,3.94,2.41,5.16Z"/>
      <text/>
      <text class="cls-2" transform="translate(106.51 20.1)"><tspan x="0" y="0">Dev</tspan></text>
      <text class="cls-2" transform="translate(107.51 218.1)"><tspan x="0" y="0">Dev</tspan></text>
      <text class="cls-2" transform="translate(210.9 99.67) rotate(90)"><tspan x="0" y="0">Dev</tspan></text>
      <text class="cls-2" transform="translate(20.65 119.59) rotate(-88.31)"><tspan x="0" y="0">Dev</tspan></text>
      <text class="cls-3" transform="translate(250.14 117.57)"><tspan x="0" y="0">STUDY</tspan><tspan x="0" y="62.36">SMART</tspan></text>
    </g>
  </g>
</svg>